<?xml version="1.0" standalone="no"?>
<!DOCTYPE svg PUBLIC "-//W3C//DTD SVG 20010904//EN"
 "http://www.w3.org/TR/2001/REC-SVG-20010904/DTD/svg10.dtd">
<svg version="1.0" xmlns="http://www.w3.org/2000/svg"
 width="400.000000pt" height="400.000000pt" viewBox="0 0 400.000000 400.000000"
 preserveAspectRatio="xMidYMid meet">
<metadata>
Created by potrace 1.11, written by Peter Selinger 2001-2013
</metadata>
<g transform="translate(0.000000,400.000000) scale(0.100000,-0.100000)"
fill="#000000" stroke="none">
<path d="M1314 3938 c-34 -35 -72 -79 -85 -98 -13 -19 -32 -44 -42 -55 -27
-29 -40 -55 -27 -55 5 0 10 4 10 10 0 5 26 33 57 62 77 72 113 111 113 121 0
5 12 6 28 3 19 -5 23 -4 13 3 -8 5 -16 19 -18 31 -2 17 -1 19 11 8 10 -9 11
-15 2 -20 -8 -6 -8 -8 1 -8 19 0 24 17 8 30 -8 7 -12 16 -9 21 12 20 -5 6 -62
-53z"/>
<path d="M1446 3988 c8 -13 -16 -48 -33 -48 -9 0 -14 -2 -11 -5 3 -3 -15 -26
-39 -51 -23 -25 -43 -50 -43 -54 0 -35 62 1 130 74 23 25 47 46 53 46 6 0 -6
-17 -26 -38 -20 -21 -37 -43 -37 -50 0 -7 -7 -15 -15 -18 -17 -7 -21 -34 -5
-34 6 0 10 -8 10 -17 1 -17 1 -17 11 0 5 9 17 17 24 17 8 0 15 4 15 8 0 5 14
19 31 31 l31 23 -12 -24 c-7 -12 -24 -35 -38 -51 -14 -15 -27 -33 -28 -40 -2
-6 -13 -38 -26 -69 -16 -40 -30 -59 -45 -63 -13 -3 -32 -18 -44 -35 -27 -36
-298 -843 -299 -888 0 -18 -14 -65 -31 -105 -17 -40 -43 -106 -59 -147 -152
-408 -174 -460 -190 -460 -5 0 -15 -2 -22 -5 -19 -7 -38 35 -38 83 0 72 -63
232 -91 232 -15 0 -11 -18 17 -78 49 -107 41 -232 -14 -203 -11 6 -24 20 -27
31 -3 11 -15 25 -27 31 -13 7 -18 17 -15 30 4 14 0 19 -14 19 -22 0 -25 -13
-6 -32 7 -7 23 -30 36 -50 12 -21 27 -38 32 -38 5 0 9 -8 9 -17 0 -34 44 -168
59 -184 20 -19 41 -14 42 9 0 10 3 12 5 5 3 -7 12 -9 19 -7 9 4 16 -4 20 -23
3 -15 11 -46 17 -68 5 -22 11 -54 12 -72 3 -33 21 -63 38 -63 6 0 7 11 3 28
-4 15 -8 47 -10 72 -1 25 -5 84 -9 132 -8 86 -7 87 39 215 26 70 61 160 78
198 16 39 36 90 43 115 25 92 92 275 100 275 5 0 10 -9 12 -20 16 -99 88 -338
113 -375 9 -14 20 -36 24 -50 11 -33 47 -88 63 -95 8 -3 10 0 6 8 -4 6 8 -1
27 -18 19 -16 35 -30 36 -31 2 0 14 -74 29 -165 14 -90 31 -167 37 -170 5 -4
7 -14 4 -24 -5 -11 -3 -14 5 -9 8 5 9 1 4 -12 -4 -10 -4 -15 1 -10 4 4 16 -10
26 -31 9 -21 15 -29 11 -18 -3 11 -12 47 -19 80 -20 96 -8 96 61 2 41 -57 57
-69 35 -28 -8 13 -6 18 5 18 20 0 48 -43 41 -62 -4 -8 -2 -17 3 -20 6 -4 10
-15 10 -26 0 -22 28 -69 41 -69 5 0 6 7 3 15 -5 11 -2 13 10 9 9 -3 16 -4 16
-2 0 12 -34 105 -42 115 -10 13 -3 33 13 33 5 0 9 -7 9 -15 0 -23 18 -18 23 8
2 12 6 -9 7 -48 3 -56 5 -44 10 60 4 72 10 149 15 172 7 40 5 44 -25 70 -54
46 -98 92 -132 139 -17 24 -51 56 -75 69 -56 34 -63 61 -30 128 38 79 44 147
17 201 -12 25 -29 48 -39 51 -15 5 -125 120 -143 150 -12 20 -38 195 -38 255
0 40 7 69 27 107 27 53 55 73 99 73 14 0 37 6 52 14 15 7 48 16 74 20 52 8 47
11 110 -74 19 -25 43 -49 54 -54 20 -9 141 -164 137 -176 0 -3 -27 -14 -60
-26 -76 -27 -134 -57 -157 -83 -28 -31 -9 -26 101 23 139 63 145 64 177 26 14
-17 26 -35 26 -40 0 -4 -21 -11 -47 -14 -59 -6 -83 -5 -83 5 0 3 -11 9 -25 11
-15 3 -22 1 -18 -5 4 -6 0 -8 -10 -4 -22 8 -31 -23 -11 -38 10 -7 15 -19 11
-28 -9 -25 12 -74 34 -80 17 -5 21 2 18 29 -1 10 35 33 54 34 9 0 17 -5 17
-10 0 -15 50 -60 78 -71 13 -5 20 -13 17 -19 -4 -6 1 -7 12 -3 26 9 83 65 77
75 -11 17 26 19 58 4 l33 -16 -33 28 c-18 15 -32 30 -32 35 0 18 39 4 81 -30
25 -21 64 -53 86 -71 64 -51 89 -179 79 -392 -9 -193 -11 -198 -104 -258 -42
-28 -113 -69 -157 -91 -44 -23 -71 -40 -60 -39 11 1 39 -11 61 -28 23 -16 60
-36 83 -44 55 -18 72 -49 66 -123 -2 -31 0 -59 5 -62 6 -4 7 1 3 11 -4 12 -3
15 5 10 17 -11 15 -41 -7 -79 l-19 -35 36 9 c39 8 48 5 54 -23 2 -14 10 -11
40 17 20 19 56 60 79 91 36 49 43 55 49 38 6 -15 13 -8 37 41 16 33 43 96 58
139 16 44 31 74 33 68 3 -11 -25 -160 -34 -174 -8 -12 16 -39 28 -32 25 16
104 226 123 332 8 42 17 87 20 100 l6 23 33 -28 c18 -15 53 -42 79 -60 25 -17
53 -43 63 -57 16 -26 45 -139 53 -208 2 -14 21 -8 21 6 0 10 12 12 48 9 37 -4
57 1 95 21 38 21 62 26 115 26 105 0 197 25 320 84 61 31 112 57 112 60 0 2
-21 -2 -47 -10 -62 -19 -129 -22 -145 -6 -14 14 19 48 142 142 64 50 275 268
267 276 -2 2 -28 -6 -58 -18 -75 -29 -118 -38 -125 -26 -3 5 10 47 30 93 39
92 76 230 75 285 0 31 -1 33 -12 16 -37 -60 -113 -126 -146 -126 -6 0 -10 43
-10 106 0 58 -5 113 -11 122 -8 15 -9 15 -10 -3 0 -11 -5 -27 -10 -35 -7 -12
-11 -10 -19 10 -8 21 -10 16 -9 -30 1 -124 -92 -241 -147 -186 -21 21 -53 124
-59 191 -3 33 -8 107 -11 165 -7 132 -13 193 -36 350 -11 81 -57 240 -69 240
-5 0 -11 7 -14 16 -3 9 -2 12 4 9 14 -9 -28 80 -62 132 -16 23 -28 44 -28 48
0 3 -5 11 -10 18 -6 7 -24 32 -40 57 -38 58 -138 158 -215 215 l-60 45 -509 0
c-494 0 -569 -4 -601 -32 -17 -15 -26 -8 -15 12 13 24 -2 27 -20 5 -7 -9 -19
-14 -26 -11 -8 3 -13 2 -11 -2 1 -4 -15 -25 -35 -46 -33 -34 -38 -36 -38 -18
0 11 4 23 10 27 5 3 19 19 31 36 l21 30 -75 -2 c-42 -2 -73 -7 -71 -11z m134
-88 c0 -5 -5 -10 -11 -10 -5 0 -7 5 -4 10 3 6 8 10 11 10 2 0 4 -4 4 -10z
m-83 -35 c-37 -35 -47 -31 -12 5 16 16 31 27 34 25 3 -3 -7 -17 -22 -30z m691
-703 c2 -7 -3 -12 -12 -12 -9 0 -16 7 -16 16 0 17 22 14 28 -4z m-319 -38 c55
-50 63 -65 29 -56 -26 6 -57 35 -81 75 -25 40 -6 33 52 -19z m-99 -41 c29 -33
31 -37 14 -46 -19 -11 -31 1 -60 56 -22 41 6 36 46 -10z m159 -321 c22 -18 31
-31 23 -36 -11 -7 -92 59 -92 76 0 12 26 -3 69 -40z m-694 -377 c15 -39 38
-90 53 -115 17 -30 26 -60 26 -91 1 -26 4 -45 7 -43 8 5 22 -46 15 -54 -3 -2
-10 7 -15 21 -5 14 -15 28 -21 32 -5 3 -8 11 -5 16 4 5 -1 9 -9 9 -9 0 -15 3
-15 8 4 21 -3 34 -23 42 -18 7 -19 9 -5 9 14 1 16 5 8 20 -11 19 -61 205 -61
224 0 24 20 -11 45 -78z m221 -51 c-4 -9 -9 -15 -11 -12 -3 3 -3 13 1 22 4 9
9 15 11 12 3 -3 3 -13 -1 -22z m-46 -74 c0 -5 -4 -10 -10 -10 -5 0 -10 5 -10
10 0 6 5 10 10 10 6 0 10 -4 10 -10z m1895 -450 c-3 -5 -18 -10 -33 -9 -24 0
-25 1 -7 9 28 12 47 12 40 0z m-1089 -56 c-4 -9 -9 -15 -11 -12 -3 3 -3 13 1
22 4 9 9 15 11 12 3 -3 3 -13 -1 -22z m-576 -205 c0 -5 -4 -9 -10 -9 -5 0 -10
7 -10 16 0 8 5 12 10 9 6 -3 10 -10 10 -16z"/>
<path d="M1410 3980 c-12 -7 -10 -9 7 -7 12 0 19 5 17 9 -6 10 -6 10 -24 -2z"/>
<path d="M1110 3700 c0 -5 -6 -7 -13 -4 -9 3 -19 -10 -30 -36 -8 -22 -12 -38
-7 -35 18 11 71 85 61 85 -6 0 -11 -4 -11 -10z"/>
<path d="M1015 3549 c-4 -6 -5 -12 -2 -15 2 -3 7 2 10 11 7 17 1 20 -8 4z"/>
<path d="M1028 3231 c-106 -92 -186 -176 -176 -186 2 -3 40 30 84 73 44 42
110 106 147 141 37 35 66 65 64 67 -2 2 -56 -40 -119 -95z"/>
<path d="M275 3202 c3 -15 8 -36 10 -47 2 -11 11 -63 20 -115 23 -136 53 -257
74 -299 10 -20 22 -52 26 -71 4 -19 13 -48 20 -65 7 -16 21 -50 31 -75 10 -25
26 -56 36 -69 10 -13 18 -37 18 -52 0 -16 4 -29 9 -29 5 0 16 -3 24 -6 8 -3
17 2 20 11 7 17 -9 66 -25 76 -5 4 -25 50 -43 104 -18 54 -35 93 -39 87 -3 -6
-3 -17 0 -26 3 -9 4 -16 0 -16 -5 0 -25 58 -51 152 -7 27 -9 50 -5 53 8 5 25
-38 33 -85 4 -22 4 -22 6 5 0 17 -3 46 -9 65 -8 27 -6 46 7 85 15 46 17 48 24
25 5 -20 7 -15 8 21 1 43 -17 78 -31 63 -7 -6 -43 51 -53 84 -4 16 -2 24 10
28 24 9 85 -22 85 -43 1 -17 2 -17 15 0 7 11 12 24 10 30 -5 15 13 40 40 55
18 10 17 11 -10 10 -38 -1 -95 11 -95 21 0 16 -64 42 -115 46 l-55 4 5 -27z"/>
<path d="M826 3194 c-9 -23 -2 -28 13 -10 7 8 8 17 3 20 -6 3 -13 -1 -16 -10z"/>
<path d="M442 2680 c0 -14 2 -19 5 -12 2 6 2 18 0 25 -3 6 -5 1 -5 -13z"/>
<path d="M471 2273 c-1 -41 2 -53 14 -53 9 0 20 -12 25 -26 6 -14 14 -22 20
-19 5 3 10 1 10 -4 0 -6 8 -11 18 -10 9 0 12 3 6 5 -6 2 -9 17 -7 32 3 15 -3
36 -12 47 -16 20 -16 20 -10 -2 5 -16 2 -23 -8 -23 -14 0 -40 44 -50 85 -3 11
-5 -4 -6 -32z"/>
<path d="M577 2280 c-8 -30 -4 -35 20 -21 10 6 13 11 6 11 -6 0 -13 8 -15 18
-3 13 -5 11 -11 -8z"/>
<path d="M946 2042 c-4 -13 -5 -26 -2 -29 10 -11 18 4 14 29 l-4 23 -8 -23z"/>
<path d="M1291 1984 c0 -11 3 -14 6 -6 3 7 2 16 -1 19 -3 4 -6 -2 -5 -13z"/>
<path d="M1280 1913 c0 -21 3 -24 9 -14 5 8 7 20 4 28 -8 21 -13 15 -13 -14z"/>
<path d="M1283 1840 c0 -25 2 -35 4 -22 2 12 2 32 0 45 -2 12 -4 2 -4 -23z"/>
<path d="M416 1833 c-4 -9 -3 -19 2 -22 5 -3 17 -21 26 -38 9 -18 23 -33 31
-33 11 0 15 -12 16 -42 0 -49 26 -195 28 -160 1 17 6 22 19 20 20 -4 30 -81
12 -103 -9 -10 -5 -23 14 -52 14 -21 27 -51 30 -67 3 -16 7 -31 10 -33 5 -5
20 42 25 77 0 5 14 16 29 24 23 12 28 21 29 53 0 23 -1 29 -4 13 -7 -36 -20
-48 -51 -45 -53 4 -59 12 -58 72 0 36 -4 58 -12 61 -13 4 -62 151 -62 187 0
13 -8 30 -18 37 -9 7 -23 25 -29 41 -14 31 -28 35 -37 10z"/>
<path d="M396 1773 c-4 -9 -3 -20 1 -24 4 -4 9 3 9 17 2 28 -1 31 -10 7z"/>
<path d="M655 1760 c-3 -6 1 -7 9 -4 18 7 21 14 7 14 -6 0 -13 -4 -16 -10z"/>
<path d="M375 1729 c-4 -6 -5 -12 -2 -15 2 -3 7 2 10 11 7 17 1 20 -8 4z"/>
<path d="M721 1703 c16 -21 31 -33 41 -33 4 0 -4 11 -18 25 -29 29 -43 33 -23
8z"/>
<path d="M686 1668 c-4 -25 -2 -55 3 -69 7 -17 10 -19 10 -6 1 9 6 26 13 36 9
15 8 26 -4 51 l-15 32 -7 -44z"/>
<path d="M970 1645 c0 -38 3 -65 7 -62 7 8 5 119 -3 126 -2 2 -4 -26 -4 -64z"/>
<path d="M290 1641 c0 -14 34 -71 43 -71 10 0 9 5 -10 45 -16 33 -33 46 -33
26z"/>
<path d="M1561 1634 c0 -11 3 -14 6 -6 3 7 2 16 -1 19 -3 4 -6 -2 -5 -13z"/>
<path d="M264 1622 c-14 -9 -37 -52 -31 -58 6 -6 47 45 47 57 0 11 -2 11 -16
1z"/>
<path d="M1565 1590 c10 -11 20 -20 23 -20 3 0 -3 9 -13 20 -10 11 -20 20 -23
20 -3 0 3 -9 13 -20z"/>
<path d="M521 1494 c0 -11 3 -14 6 -6 3 7 2 16 -1 19 -3 4 -6 -2 -5 -13z"/>
<path d="M2960 1462 c0 -5 7 -13 16 -16 10 -4 14 -1 12 6 -5 15 -28 23 -28 10z"/>
<path d="M270 1387 c22 -73 57 -215 69 -272 12 -58 32 -103 39 -86 2 8 -2 28
-10 45 -14 28 -31 88 -46 156 -5 22 -3 24 11 11 10 -7 17 -20 17 -27 0 -19 16
-18 24 2 3 8 10 13 14 10 5 -3 24 4 42 16 32 19 34 19 47 2 7 -10 13 -22 13
-27 0 -4 4 -5 10 -2 6 3 10 0 10 -7 0 -9 5 -8 16 4 19 19 8 47 -31 72 -14 9
-23 21 -20 25 3 5 -8 23 -24 40 l-29 31 11 -30 c10 -27 9 -33 -14 -56 l-26
-26 -42 21 c-26 14 -41 28 -41 40 0 22 -37 108 -49 115 -5 3 0 -22 9 -57z"/>
<path d="M2933 1410 c-29 -10 -89 -22 -133 -26 -58 -5 -80 -10 -80 -20 0 -8
-5 -14 -11 -14 -5 0 -7 5 -3 11 5 8 0 10 -17 6 -13 -3 -42 -9 -64 -12 -53 -9
-137 -35 -150 -47 -6 -6 -3 -7 10 -2 11 4 17 3 12 -1 -4 -5 -25 -8 -47 -7 -22
2 -40 -1 -40 -7 0 -5 -8 -7 -17 -5 -29 8 -259 -120 -266 -148 -3 -10 -20 -26
-37 -35 -31 -17 -147 -93 -200 -130 -23 -18 -24 -17 -16 2 5 11 8 31 7 44 0
13 4 31 11 39 7 8 -5 3 -26 -12 -45 -30 -58 -33 -49 -8 6 15 4 15 -15 -2 -12
-11 -22 -24 -22 -30 0 -15 -50 -72 -61 -69 -5 2 -9 -3 -9 -10 0 -6 -20 -37
-45 -67 -46 -56 -115 -164 -115 -180 0 -5 -16 -21 -35 -36 -20 -15 -34 -33
-31 -40 3 -7 -22 -40 -54 -72 -33 -33 -60 -63 -60 -67 0 -5 -28 -40 -62 -79
-121 -137 -119 -135 -173 -141 l-50 -6 30 17 c53 30 9 26 -60 -5 -77 -35 -90
-37 -81 -15 3 8 2 13 -3 10 -10 -6 -74 85 -91 128 -11 29 -22 33 -40 12 -15
-20 -43 -8 -37 15 3 10 0 20 -7 22 -15 5 -39 -134 -25 -148 16 -16 11 -38 -8
-30 -15 5 -16 4 -5 -6 18 -19 15 -56 -9 -77 -20 -19 -72 -152 -63 -161 2 -2
11 4 19 15 13 17 14 17 15 2 0 -12 7 -17 21 -15 23 4 41 26 32 41 -3 5 -1 6 5
2 8 -5 12 3 12 23 0 17 4 31 10 31 6 0 7 -18 4 -44 -6 -42 -5 -44 14 -39 11 3
24 12 27 21 6 15 8 15 15 -3 8 -18 9 -17 9 6 1 15 -6 29 -14 33 -8 3 -15 13
-15 21 0 9 5 13 11 9 7 -4 9 10 4 47 -6 49 -4 55 16 67 20 13 21 12 15 -11 -9
-36 12 -50 54 -35 29 9 35 9 46 -7 12 -17 14 -16 24 10 8 22 13 25 25 15 8 -6
23 -9 34 -5 13 4 25 -2 40 -20 14 -19 26 -25 40 -20 20 6 37 35 21 35 -27 0
-2 38 79 120 48 49 90 87 93 85 3 -3 11 6 18 20 12 23 102 105 115 105 9 0
-15 -43 -40 -70 -29 -31 -143 -255 -169 -329 -13 -39 -20 -50 -27 -40 -5 8 -9
9 -9 3 0 -7 -8 -11 -17 -10 -12 0 -19 -7 -21 -21 -3 -17 2 -23 15 -23 15 0 16
2 3 10 -13 8 -12 10 4 10 13 0 17 -5 13 -20 -5 -20 0 -20 397 -20 l402 0 33
78 c59 136 62 144 52 137 -19 -11 -12 8 29 84 52 95 135 204 209 276 33 32 57
63 55 70 -3 7 3 19 13 26 29 21 38 40 16 32 -14 -5 -13 -1 5 16 l22 22 -22 29
c-13 16 -30 29 -38 29 -9 1 -21 6 -27 12 -18 18 -44 -6 -108 -98 -33 -47 -61
-80 -63 -74 -2 6 3 23 12 36 18 28 13 33 -10 10 -17 -16 -34 -20 -34 -7 0 12
-84 1 -92 -12 -6 -8 -8 -7 -8 2 0 19 -20 14 -59 -15 l-36 -26 40 43 c79 85
108 108 176 140 15 7 50 32 78 57 44 38 55 43 83 38 23 -4 54 2 101 19 37 14
103 30 148 35 44 5 83 12 87 15 22 23 -78 85 -141 88 -20 1 -37 3 -37 5 0 11
108 48 200 69 112 25 170 30 170 14 0 -5 15 -10 34 -10 35 0 55 -13 36 -25
-11 -7 -1 -67 13 -76 5 -4 8 -25 5 -47 -2 -22 1 -40 5 -39 5 1 11 -7 13 -18 1
-11 8 -21 14 -23 21 -7 -2 -22 -36 -22 -20 0 -42 -6 -49 -14 -11 -11 -2 -13
60 -14 66 0 77 -3 105 -29 37 -33 91 -136 120 -231 23 -75 56 -308 67 -481 l8
-114 56 -2 56 -3 -4 117 c-6 176 -20 332 -38 408 -8 37 -38 168 -66 291 -27
122 -56 242 -63 266 -10 32 -10 48 -3 55 8 8 6 21 -6 46 -9 20 -17 52 -18 73
-2 75 -8 82 -91 112 -43 15 -80 25 -82 23 -2 -3 -7 5 -11 16 -8 25 -6 25 -72
1z m-258 -70 c3 -5 15 -10 26 -10 10 0 19 -4 19 -10 0 -13 -27 -13 -36 1 -3 6
-17 9 -29 7 -16 -4 -22 -1 -18 9 6 15 29 17 38 3z m-80 -10 c3 -5 -1 -10 -9
-10 -9 0 -16 5 -16 10 0 6 4 10 9 10 6 0 13 -4 16 -10z m35 -23 c25 0 50 -4
57 -9 7 -5 21 -7 32 -3 11 3 37 3 57 -1 33 -6 35 -8 20 -19 -15 -11 -15 -13
-1 -19 9 -3 13 -2 10 4 -9 15 25 12 40 -4 12 -12 10 -15 -13 -19 -15 -3 -35
-1 -46 5 -12 7 -16 7 -12 0 3 -6 -7 -13 -25 -17 -22 -5 -36 -2 -50 11 -19 17
-23 16 -122 -34 l-102 -52 -37 17 c-21 10 -37 23 -38 30 0 6 -3 13 -7 16 -5 2
-3 3 3 1 6 -1 17 3 23 9 7 7 15 12 19 13 29 2 78 19 90 31 8 8 21 12 29 9 9
-4 11 -1 7 5 -5 9 4 10 32 5 28 -5 35 -4 24 3 -8 6 -28 11 -45 12 -16 0 -39 4
-50 9 -14 7 -8 8 20 3 22 -3 60 -6 85 -6z m-530 -334 c1 -25 18 -33 46 -23 34
13 32 11 -64 -69 -102 -84 -114 -82 -59 9 19 31 41 54 49 54 10 -1 14 5 11 17
-3 11 0 19 6 19 6 0 11 -3 11 -7z m200 -42 c0 -5 -24 -27 -53 -49 -30 -22 -61
-48 -70 -57 -13 -13 -17 -13 -17 -3 0 8 28 38 63 66 62 51 77 60 77 43z"/>
<path d="M962 1400 c0 -14 2 -19 5 -12 2 6 2 18 0 25 -3 6 -5 1 -5 -13z"/>
<path d="M902 1246 c4 -5 -4 -18 -18 -31 -13 -12 -24 -26 -24 -30 0 -4 -9 -18
-20 -32 -11 -14 -20 -35 -20 -47 0 -11 -9 -32 -20 -46 -11 -14 -20 -29 -20
-33 0 -4 -11 -25 -25 -45 -28 -41 -35 -72 -11 -53 11 9 16 9 22 0 10 -16 22
14 23 56 1 17 8 41 16 55 8 14 17 32 21 40 4 8 13 22 19 30 7 8 27 41 44 72
23 42 28 59 18 64 -6 4 -9 4 -5 0z"/>
<path d="M731 1084 c0 -11 3 -14 6 -6 3 7 2 16 -1 19 -3 4 -6 -2 -5 -13z"/>
<path d="M2568 853 c6 -2 18 -2 25 0 6 3 1 5 -13 5 -14 0 -19 -2 -12 -5z"/>
<path d="M2810 850 c-12 -8 -10 -10 10 -9 14 1 36 5 50 9 23 7 22 8 -10 9 -19
0 -42 -4 -50 -9z"/>
<path d="M284 272 c-16 -31 -56 -105 -88 -165 l-58 -107 74 0 74 0 18 133 c10
72 21 147 23 165 8 48 -8 39 -43 -26z"/>
<path d="M930 57 c0 -8 9 -24 20 -37 l20 -23 -1 39 c0 31 -2 35 -9 19 -7 -17
-9 -17 -9 -2 -1 20 -21 24 -21 4z"/>
<path d="M987 63 c-11 -10 -8 -43 3 -43 6 0 10 10 11 23 1 21 1 21 9 -3 l8
-25 1 28 c1 25 -16 36 -32 20z"/>
<path d="M1146 64 c7 -3 10 -14 7 -24 -4 -15 0 -20 13 -19 11 0 13 3 7 6 -9 3
-10 10 -3 24 9 16 7 19 -12 18 -13 0 -18 -3 -12 -5z"/>
</g>
</svg>
